HIERARCHY
ROOT SpineBase
{
  OFFSET 0.000000 0.000000 0.000000
  CHANNELS 6 Xposition Yposition Zposition Zrotation Xrotation Yrotation
  JOINT SpineMid
  {
    OFFSET 0.000000 27.595106 0.000000
    CHANNELS 3 Zrotation Xrotation Yrotation
    JOINT SpineShoulder
    {
      OFFSET -0.217709 20.696174 -0.473092
      CHANNELS 3 Zrotation Xrotation Yrotation
      JOINT Neck
      {
        OFFSET -0.076211 6.879983 -0.431036
        CHANNELS 3 Zrotation Xrotation Yrotation
        JOINT Head
        {
          OFFSET 1.913292 13.403894 -2.330309
          CHANNELS 3 Zrotation Xrotation Yrotation
          End Site
          {
            OFFSET 0 0 0
          }
        }
      }
      JOINT ShoulderLeft
      {
        OFFSET -15.318415 1.108291 -3.595520
        CHANNELS 3 Zrotation Xrotation Yrotation
        JOINT ElbowLeft
        {
          OFFSET -5.747560 -19.273378 -4.518067
          CHANNELS 3 Zrotation Xrotation Yrotation
          JOINT WristLeft
          {
            OFFSET 1.223677 -24.055553 -8.562466
            CHANNELS 3 Zrotation Xrotation Yrotation
            JOINT HandLeft
            {
              OFFSET 0.265798 -7.269195 -2.409078
              CHANNELS 3 Zrotation Xrotation Yrotation
              JOINT HandTipLeft
              {
                OFFSET 1.674179 -6.371753 -0.871361
                CHANNELS 3 Zrotation Xrotation Yrotation
                End Site
                {
                  OFFSET 0 0 0
                }
              }
              JOINT ThumbLeft
              {
                OFFSET 2.893604 1.027371 0.035183
                CHANNELS 3 Zrotation Xrotation Yrotation
                End Site
                {
                  OFFSET 0 0 0
                }
              }
            }
          }
        }
      }
      JOINT ShoulderRight
      {
        OFFSET 14.783746 -1.071306 3.069920
        CHANNELS 3 Zrotation Xrotation Yrotation
        JOINT ElbowRight
        {
          OFFSET 5.628125 -23.795565 8.470952
          CHANNELS 3 Zrotation Xrotation Yrotation
          JOINT WristRight
          {
            OFFSET -4.019478 -19.086280 -5.596608
            CHANNELS 3 Zrotation Xrotation Yrotation
            JOINT HandRight
            {
              OFFSET 4.641423 -0.170405 -5.618452
              CHANNELS 3 Zrotation Xrotation Yrotation
              JOINT HandTipRight
              {
                OFFSET 0.370661 -1.686372 -2.596041
                CHANNELS 3 Zrotation Xrotation Yrotation
                End Site
                {
                  OFFSET 0 0 0
                }
              }
              JOINT ThumbRight
              {
                OFFSET -2.084047 2.847360 -4.722348
                CHANNELS 3 Zrotation Xrotation Yrotation
                End Site
                {
                  OFFSET 0 0 0
                }
              }
            }
          }
        }
      }
    }
  }
  JOINT HipLeft
  {
    OFFSET -7.317130 1.684377 -4.494641
    CHANNELS 3 Zrotation Xrotation Yrotation
    JOINT KneeLeft
    {
      OFFSET -1.840484 -28.859214 1.632907
      CHANNELS 3 Zrotation Xrotation Yrotation
      JOINT AnkleLeft
      {
        OFFSET -5.771116 -31.120415 -0.487332
        CHANNELS 3 Zrotation Xrotation Yrotation
        JOINT FootLeft
        {
          OFFSET 1.395433 -3.381010 -12.238582
          CHANNELS 3 Zrotation Xrotation Yrotation
          End Site
          {
            OFFSET 0 0 0
          }
        }
      }
    }
  }
  JOINT HipRight
  {
    OFFSET 7.990503 0.717132 -2.053895
    CHANNELS 3 Zrotation Xrotation Yrotation
    JOINT KneeRight
    {
      OFFSET 15.121012 -24.259119 -11.413213
      CHANNELS 3 Zrotation Xrotation Yrotation
      JOINT AnkleRight
      {
        OFFSET 7.655265 -36.044234 -0.983730
        CHANNELS 3 Zrotation Xrotation Yrotation
        JOINT FootRight
        {
          OFFSET 6.883138 -6.420036 -10.294993
          CHANNELS 3 Zrotation Xrotation Yrotation
          End Site
          {
            OFFSET 0 0 0
          }
        }
      }
    }
  }
}
MOTION
Frames: 5
Frame Time: 0.033333
-17.978857 62.769624 359.099599 10.739463 -3.185952 12.851156 -0.096218 -1.002476 -12.257983 -0.822195 -0.204083 0.423433 -25.801360 38.720532 -1.852396 0.000000 0.000000 0.000000 -11.957649 -9.233488 4.404947 -5.769233 0.762355 -1.730475 -9.438207 10.617076 6.320926 -6.368242 11.271199 2.542416 0.000000 0.000000 0.000000 0.000000 0.000000 0.000000 5.330719 -14.554932 2.015461 6.620339 13.873952 -10.188085 -41.914213 -31.087109 11.852620 11.128490 -11.612779 -10.419598 0.000000 0.000000 0.000000 0.000000 0.000000 0.000000 -22.347862 25.607697 -10.693547 15.113406 -22.422273 5.035312 0.056468 9.516279 6.973996 0.000000 0.000000 0.000000 -29.786682 -7.951711 -15.996245 14.213079 19.313026 1.872224 -6.315169 -3.442071 11.385122 0.000000 0.000000 0.000000
-18.022330 64.345504 358.926973 12.204735 -2.870469 8.912587 -1.144339 -0.300632 -8.312266 -0.381764 -0.584345 0.475525 -25.245578 36.251916 -2.292556 0.000000 0.000000 0.000000 -12.093834 -10.122605 4.356556 -5.728161 1.313572 -1.895874 -7.931337 13.246207 5.839014 -8.350775 5.733445 0.921729 0.000000 0.000000 0.000000 0.000000 0.000000 0.000000 8.106404 -8.416136 4.012867 6.419870 6.665269 -12.439332 -37.440712 -30.106264 32.852802 3.403008 -8.435278 -23.954582 0.000000 0.000000 0.000000 0.000000 0.000000 0.000000 -24.907446 19.697226 -6.993676 13.765621 -17.467044 3.897034 -0.510582 8.763362 8.484170 0.000000 0.000000 0.000000 -30.617518 -9.824736 -12.359668 13.956656 14.873755 0.897521 -7.350771 -3.051424 11.430514 0.000000 0.000000 0.000000
-18.163869 65.706787 358.746712 12.101678 -2.066200 5.378333 -2.476506 0.455064 -4.928275 0.142254 -0.833732 0.448716 -19.839402 31.816762 -3.321512 0.000000 0.000000 0.000000 -9.244575 -11.295041 3.903513 -7.244932 3.339758 -1.103426 -5.634674 13.377804 4.396116 -9.042445 1.132042 -0.459336 0.000000 0.000000 0.000000 0.000000 0.000000 0.000000 11.506157 -3.705952 5.605939 6.732195 0.321768 -14.106897 -36.825280 -36.629276 49.508786 5.023431 -4.211305 -44.665449 0.000000 0.000000 0.000000 0.000000 0.000000 0.000000 -25.016993 14.254567 -4.259465 12.627759 -13.970625 3.132827 -0.973465 8.660380 9.712390 0.000000 0.000000 0.000000 -30.332380 -12.000918 -9.272497 14.221763 11.129376 -0.240639 -8.208312 -1.659338 12.663595 0.000000 0.000000 0.000000
-18.442988 66.590851 358.632373 11.673632 -1.405514 2.684795 -2.449327 0.250070 -2.322361 0.035271 -0.754106 0.420323 -15.909781 27.590016 -3.601575 0.000000 0.000000 0.000000 -7.832512 -11.322203 3.519107 -8.351265 6.001524 -0.160716 -2.138217 12.607595 2.334829 -9.755630 -4.048729 -1.752836 0.000000 0.000000 0.000000 0.000000 0.000000 0.000000 12.874229 0.588447 6.382413 7.955002 -5.143065 -14.830652 -33.521168 -41.882949 67.416828 5.173774 -1.384906 -63.958656 0.000000 0.000000 0.000000 0.000000 0.000000 0.000000 -24.027262 10.870821 -2.215956 11.438192 -12.479593 2.737080 -1.556500 8.868646 11.460046 0.000000 0.000000 0.000000 -29.594964 -13.257543 -6.531797 13.021949 6.861219 -1.266170 -6.106625 1.016373 11.397418 0.000000 0.000000 0.000000
-18.665818 67.109002 358.464251 11.200717 -0.847584 2.235546 -2.231778 0.351835 -1.956268 -0.361162 -0.336214 0.357030 -13.334891 23.478717 -3.615180 0.000000 0.000000 0.000000 -6.972990 -11.736141 3.216078 -8.357719 7.294751 0.149372 0.792415 14.802794 1.044339 -10.648561 -10.931045 -3.343116 0.000000 0.000000 0.000000 0.000000 0.000000 0.000000 13.426759 2.335274 6.871064 9.421875 -8.511904 -14.835192 -28.353452 -47.583949 83.346334 4.111504 1.456401 -78.948780 0.000000 0.000000 0.000000 0.000000 0.000000 0.000000 -22.686957 9.506196 -2.109735 10.552661 -12.117508 2.578976 -1.854435 9.326399 12.174470 0.000000 0.000000 0.000000 -29.473615 -13.318644 -5.644162 11.449488 2.933007 -2.374085 -3.678387 3.459132 10.167305 0.000000 0.000000 0.000000
